<svg width="640" height="307" viewBox="0 0 640 307" fill="none" xmlns="http://www.w3.org/2000/svg">
<path d="M245.867 140.141C246.133 140.597 246.361 141.082 246.551 141.595C246.76 142.089 246.96 142.592 247.15 143.105C247.34 142.573 247.539 142.07 247.748 141.595C247.957 141.101 248.195 140.607 248.461 140.113L262.283 115.004C262.53 114.567 262.787 114.301 263.053 114.206C263.319 114.111 263.699 114.064 264.193 114.064H268.268V154.904H263.423V124.894C263.423 124.495 263.433 124.067 263.452 123.611C263.471 123.155 263.499 122.69 263.537 122.215L249.544 147.751C249.069 148.606 248.404 149.033 247.549 149.033H246.751C245.896 149.033 245.231 148.606 244.756 147.751L230.449 122.129C230.506 122.623 230.544 123.108 230.563 123.583C230.601 124.058 230.62 124.495 230.62 124.894V154.904H225.775V114.064H229.85C230.344 114.064 230.724 114.111 230.99 114.206C231.256 114.301 231.513 114.567 231.76 115.004L245.867 140.141ZM300.155 154.904H294.626V114.064H300.155V154.904ZM347.388 120.448C347.217 120.733 347.036 120.951 346.846 121.103C346.656 121.236 346.409 121.303 346.105 121.303C345.782 121.303 345.402 121.141 344.965 120.818C344.547 120.495 344.006 120.144 343.341 119.764C342.695 119.365 341.906 119.004 340.975 118.681C340.063 118.358 338.952 118.196 337.641 118.196C336.406 118.196 335.313 118.367 334.363 118.709C333.413 119.032 332.615 119.479 331.969 120.049C331.342 120.619 330.867 121.293 330.544 122.072C330.221 122.832 330.06 123.659 330.06 124.552C330.06 125.692 330.335 126.642 330.886 127.402C331.456 128.143 332.197 128.779 333.109 129.311C334.04 129.843 335.085 130.309 336.244 130.708C337.422 131.088 338.619 131.487 339.835 131.905C341.07 132.323 342.267 132.798 343.426 133.33C344.604 133.843 345.649 134.498 346.561 135.296C347.492 136.094 348.233 137.073 348.784 138.232C349.354 139.391 349.639 140.816 349.639 142.507C349.639 144.293 349.335 145.974 348.727 147.551C348.119 149.109 347.226 150.468 346.048 151.627C344.889 152.786 343.455 153.698 341.745 154.363C340.054 155.028 338.125 155.36 335.959 155.36C333.318 155.36 330.905 154.885 328.72 153.935C326.554 152.966 324.702 151.665 323.163 150.031L324.759 147.409C324.911 147.2 325.091 147.029 325.3 146.896C325.528 146.744 325.775 146.668 326.041 146.668C326.44 146.668 326.896 146.886 327.409 147.323C327.922 147.741 328.559 148.207 329.319 148.72C330.098 149.233 331.029 149.708 332.112 150.145C333.214 150.563 334.553 150.772 336.13 150.772C337.441 150.772 338.61 150.591 339.636 150.23C340.662 149.869 341.526 149.366 342.229 148.72C342.951 148.055 343.502 147.266 343.882 146.354C344.262 145.442 344.452 144.426 344.452 143.305C344.452 142.07 344.167 141.063 343.597 140.284C343.046 139.486 342.315 138.821 341.403 138.289C340.491 137.757 339.446 137.31 338.268 136.949C337.109 136.569 335.912 136.189 334.677 135.809C333.461 135.41 332.264 134.954 331.086 134.441C329.927 133.928 328.891 133.263 327.979 132.446C327.067 131.629 326.326 130.613 325.756 129.397C325.205 128.162 324.93 126.642 324.93 124.837C324.93 123.393 325.205 121.996 325.756 120.647C326.326 119.298 327.143 118.101 328.207 117.056C329.271 116.011 330.582 115.175 332.14 114.548C333.717 113.921 335.522 113.608 337.555 113.608C339.835 113.608 341.916 113.969 343.797 114.691C345.678 115.413 347.321 116.458 348.727 117.826L347.388 120.448ZM393.004 120.448C392.833 120.733 392.652 120.951 392.462 121.103C392.272 121.236 392.025 121.303 391.721 121.303C391.398 121.303 391.018 121.141 390.581 120.818C390.163 120.495 389.622 120.144 388.957 119.764C388.311 119.365 387.522 119.004 386.591 118.681C385.679 118.358 384.568 118.196 383.257 118.196C382.022 118.196 380.929 118.367 379.979 118.709C379.029 119.032 378.231 119.479 377.585 120.049C376.958 120.619 376.483 121.293 376.16 122.072C375.837 122.832 375.676 123.659 375.676 124.552C375.676 125.692 375.951 126.642 376.502 127.402C377.072 128.143 377.813 128.779 378.725 129.311C379.656 129.843 380.701 130.309 381.86 130.708C383.038 131.088 384.235 131.487 385.451 131.905C386.686 132.323 387.883 132.798 389.042 133.33C390.22 133.843 391.265 134.498 392.177 135.296C393.108 136.094 393.849 137.073 394.4 138.232C394.97 139.391 395.255 140.816 395.255 142.507C395.255 144.293 394.951 145.974 394.343 147.551C393.735 149.109 392.842 150.468 391.664 151.627C390.505 152.786 389.071 153.698 387.361 154.363C385.67 155.028 383.741 155.36 381.575 155.36C378.934 155.36 376.521 154.885 374.336 153.935C372.17 152.966 370.318 151.665 368.779 150.031L370.375 147.409C370.527 147.2 370.707 147.029 370.916 146.896C371.144 146.744 371.391 146.668 371.657 146.668C372.056 146.668 372.512 146.886 373.025 147.323C373.538 147.741 374.175 148.207 374.935 148.72C375.714 149.233 376.645 149.708 377.728 150.145C378.83 150.563 380.169 150.772 381.746 150.772C383.057 150.772 384.226 150.591 385.252 150.23C386.278 149.869 387.142 149.366 387.845 148.72C388.567 148.055 389.118 147.266 389.498 146.354C389.878 145.442 390.068 144.426 390.068 143.305C390.068 142.07 389.783 141.063 389.213 140.284C388.662 139.486 387.931 138.821 387.019 138.289C386.107 137.757 385.062 137.31 383.884 136.949C382.725 136.569 381.528 136.189 380.293 135.809C379.077 135.41 377.88 134.954 376.702 134.441C375.543 133.928 374.507 133.263 373.595 132.446C372.683 131.629 371.942 130.613 371.372 129.397C370.821 128.162 370.546 126.642 370.546 124.837C370.546 123.393 370.821 121.996 371.372 120.647C371.942 119.298 372.759 118.101 373.823 117.056C374.887 116.011 376.198 115.175 377.756 114.548C379.333 113.921 381.138 113.608 383.171 113.608C385.451 113.608 387.532 113.969 389.413 114.691C391.294 115.413 392.937 116.458 394.343 117.826L393.004 120.448ZM424.255 154.904H418.726V114.064H424.255V154.904ZM488.502 134.498C488.502 137.557 488.018 140.369 487.049 142.934C486.08 145.48 484.712 147.675 482.945 149.518C481.178 151.361 479.05 152.795 476.561 153.821C474.091 154.828 471.355 155.332 468.353 155.332C465.351 155.332 462.615 154.828 460.145 153.821C457.675 152.795 455.556 151.361 453.789 149.518C452.022 147.675 450.654 145.48 449.685 142.934C448.716 140.369 448.232 137.557 448.232 134.498C448.232 131.439 448.716 128.637 449.685 126.091C450.654 123.526 452.022 121.322 453.789 119.479C455.556 117.617 457.675 116.173 460.145 115.147C462.615 114.121 465.351 113.608 468.353 113.608C471.355 113.608 474.091 114.121 476.561 115.147C479.05 116.173 481.178 117.617 482.945 119.479C484.712 121.322 486.08 123.526 487.049 126.091C488.018 128.637 488.502 131.439 488.502 134.498ZM482.831 134.498C482.831 131.99 482.489 129.739 481.805 127.744C481.121 125.749 480.152 124.067 478.898 122.699C477.644 121.312 476.124 120.248 474.338 119.507C472.552 118.766 470.557 118.396 468.353 118.396C466.168 118.396 464.182 118.766 462.396 119.507C460.61 120.248 459.081 121.312 457.808 122.699C456.554 124.067 455.585 125.749 454.901 127.744C454.217 129.739 453.875 131.99 453.875 134.498C453.875 137.006 454.217 139.258 454.901 141.253C455.585 143.229 456.554 144.91 457.808 146.297C459.081 147.665 460.61 148.72 462.396 149.461C464.182 150.183 466.168 150.544 468.353 150.544C470.557 150.544 472.552 150.183 474.338 149.461C476.124 148.72 477.644 147.665 478.898 146.297C480.152 144.91 481.121 143.229 481.805 141.253C482.489 139.258 482.831 137.006 482.831 134.498ZM514.286 114.064C514.78 114.064 515.141 114.13 515.369 114.263C515.616 114.377 515.892 114.624 516.196 115.004L539.851 145.784C539.794 145.29 539.756 144.815 539.737 144.359C539.718 143.884 539.708 143.428 539.708 142.991V114.064H544.553V154.904H541.76C541.323 154.904 540.953 154.828 540.649 154.676C540.364 154.524 540.079 154.268 539.794 153.907L516.167 123.155C516.205 123.63 516.234 124.096 516.253 124.552C516.272 125.008 516.281 125.426 516.281 125.806V154.904H511.436V114.064H514.286Z" fill="black"/>
<path d="M283.192 187.856C283.384 187.856 283.576 187.896 283.768 187.976C283.96 188.04 284.144 188.16 284.32 188.336L287.536 191.72C286.128 193.56 284.36 194.952 282.232 195.896C280.12 196.824 277.616 197.288 274.72 197.288C272.064 197.288 269.68 196.84 267.568 195.944C265.472 195.032 263.688 193.784 262.216 192.2C260.76 190.6 259.64 188.712 258.856 186.536C258.072 184.344 257.68 181.968 257.68 179.408C257.68 176.8 258.128 174.408 259.024 172.232C259.92 170.04 261.168 168.152 262.768 166.568C264.384 164.984 266.312 163.752 268.552 162.872C270.792 161.992 273.264 161.552 275.968 161.552C277.28 161.552 278.512 161.672 279.664 161.912C280.832 162.136 281.92 162.456 282.928 162.872C283.936 163.272 284.864 163.76 285.712 164.336C286.56 164.896 287.312 165.52 287.968 166.208L285.232 169.88C285.056 170.104 284.848 170.312 284.608 170.504C284.368 170.68 284.032 170.768 283.6 170.768C283.312 170.768 283.04 170.704 282.784 170.576C282.528 170.448 282.256 170.296 281.968 170.12C281.68 169.928 281.36 169.728 281.008 169.52C280.672 169.296 280.264 169.096 279.784 168.92C279.32 168.728 278.768 168.568 278.128 168.44C277.504 168.312 276.768 168.248 275.92 168.248C274.448 168.248 273.104 168.512 271.888 169.04C270.672 169.552 269.624 170.296 268.744 171.272C267.88 172.232 267.2 173.4 266.704 174.776C266.224 176.152 265.984 177.696 265.984 179.408C265.984 181.2 266.224 182.792 266.704 184.184C267.2 185.576 267.864 186.752 268.696 187.712C269.544 188.656 270.528 189.376 271.648 189.872C272.768 190.368 273.968 190.616 275.248 190.616C275.984 190.616 276.656 190.584 277.264 190.52C277.872 190.44 278.432 190.312 278.944 190.136C279.472 189.96 279.968 189.736 280.432 189.464C280.912 189.176 281.392 188.824 281.872 188.408C282.064 188.248 282.272 188.12 282.496 188.024C282.72 187.912 282.952 187.856 283.192 187.856ZM330.555 179.408C330.555 181.936 330.115 184.288 329.235 186.464C328.371 188.64 327.147 190.536 325.563 192.152C323.979 193.752 322.067 195.008 319.827 195.92C317.603 196.832 315.131 197.288 312.411 197.288C309.691 197.288 307.211 196.832 304.971 195.92C302.731 195.008 300.811 193.752 299.211 192.152C297.627 190.536 296.395 188.64 295.515 186.464C294.651 184.288 294.219 181.936 294.219 179.408C294.219 176.88 294.651 174.528 295.515 172.352C296.395 170.176 297.627 168.288 299.211 166.688C300.811 165.088 302.731 163.832 304.971 162.92C307.211 162.008 309.691 161.552 312.411 161.552C315.131 161.552 317.603 162.016 319.827 162.944C322.067 163.856 323.979 165.112 325.563 166.712C327.147 168.312 328.371 170.2 329.235 172.376C330.115 174.552 330.555 176.896 330.555 179.408ZM322.251 179.408C322.251 177.68 322.027 176.128 321.579 174.752C321.131 173.36 320.483 172.184 319.635 171.224C318.803 170.264 317.779 169.528 316.563 169.016C315.347 168.504 313.963 168.248 312.411 168.248C310.843 168.248 309.443 168.504 308.211 169.016C306.995 169.528 305.963 170.264 305.115 171.224C304.283 172.184 303.643 173.36 303.195 174.752C302.747 176.128 302.523 177.68 302.523 179.408C302.523 181.152 302.747 182.72 303.195 184.112C303.643 185.488 304.283 186.656 305.115 187.616C305.963 188.576 306.995 189.312 308.211 189.824C309.443 190.32 310.843 190.568 312.411 190.568C313.963 190.568 315.347 190.32 316.563 189.824C317.779 189.312 318.803 188.576 319.635 187.616C320.483 186.656 321.131 185.488 321.579 184.112C322.027 182.72 322.251 181.152 322.251 179.408ZM343.505 161.936C343.857 161.936 344.153 161.952 344.393 161.984C344.633 162.016 344.849 162.08 345.041 162.176C345.233 162.256 345.417 162.376 345.593 162.536C345.769 162.696 345.969 162.912 346.193 163.184L362.801 184.184C362.737 183.512 362.689 182.864 362.657 182.24C362.625 181.6 362.609 181 362.609 180.44V161.936H369.761V196.904H365.537C364.913 196.904 364.385 196.808 363.953 196.616C363.521 196.424 363.105 196.072 362.705 195.56L346.217 174.728C346.265 175.336 346.305 175.936 346.337 176.528C346.369 177.104 346.385 177.648 346.385 178.16V196.904H339.233V161.936H343.505ZM405.707 161.936V168.368H395.867V196.904H387.755V168.368H377.915V161.936H405.707ZM421.961 183.968V196.904H413.849V161.936H425.225C427.753 161.936 429.905 162.2 431.681 162.728C433.473 163.24 434.929 163.96 436.049 164.888C437.185 165.816 438.009 166.912 438.521 168.176C439.033 169.44 439.289 170.816 439.289 172.304C439.289 173.44 439.137 174.512 438.833 175.52C438.529 176.528 438.073 177.464 437.465 178.328C436.873 179.176 436.137 179.936 435.257 180.608C434.393 181.28 433.393 181.832 432.257 182.264C432.801 182.536 433.305 182.872 433.769 183.272C434.249 183.672 434.665 184.16 435.017 184.736L442.457 196.904H435.113C433.753 196.904 432.777 196.392 432.185 195.368L426.377 185.216C426.121 184.768 425.817 184.448 425.465 184.256C425.129 184.064 424.649 183.968 424.025 183.968H421.961ZM421.961 178.376H425.225C426.329 178.376 427.265 178.24 428.033 177.968C428.817 177.68 429.457 177.288 429.953 176.792C430.449 176.296 430.809 175.72 431.033 175.064C431.257 174.392 431.369 173.672 431.369 172.904C431.369 171.368 430.865 170.168 429.857 169.304C428.865 168.44 427.321 168.008 425.225 168.008H421.961V178.376ZM483.864 179.408C483.864 181.936 483.424 184.288 482.544 186.464C481.68 188.64 480.456 190.536 478.872 192.152C477.288 193.752 475.376 195.008 473.136 195.92C470.912 196.832 468.44 197.288 465.72 197.288C463 197.288 460.52 196.832 458.28 195.92C456.04 195.008 454.12 193.752 452.52 192.152C450.936 190.536 449.704 188.64 448.824 186.464C447.96 184.288 447.528 181.936 447.528 179.408C447.528 176.88 447.96 174.528 448.824 172.352C449.704 170.176 450.936 168.288 452.52 166.688C454.12 165.088 456.04 163.832 458.28 162.92C460.52 162.008 463 161.552 465.72 161.552C468.44 161.552 470.912 162.016 473.136 162.944C475.376 163.856 477.288 165.112 478.872 166.712C480.456 168.312 481.68 170.2 482.544 172.376C483.424 174.552 483.864 176.896 483.864 179.408ZM475.56 179.408C475.56 177.68 475.336 176.128 474.888 174.752C474.44 173.36 473.792 172.184 472.944 171.224C472.112 170.264 471.088 169.528 469.872 169.016C468.656 168.504 467.272 168.248 465.72 168.248C464.152 168.248 462.752 168.504 461.52 169.016C460.304 169.528 459.272 170.264 458.424 171.224C457.592 172.184 456.952 173.36 456.504 174.752C456.056 176.128 455.832 177.68 455.832 179.408C455.832 181.152 456.056 182.72 456.504 184.112C456.952 185.488 457.592 186.656 458.424 187.616C459.272 188.576 460.304 189.312 461.52 189.824C462.752 190.32 464.152 190.568 465.72 190.568C467.272 190.568 468.656 190.32 469.872 189.824C471.088 189.312 472.112 188.576 472.944 187.616C473.792 186.656 474.44 185.488 474.888 184.112C475.336 182.72 475.56 181.152 475.56 179.408ZM500.655 190.424H513.615V196.904H492.543V161.936H500.655V190.424Z" fill="black"/>
<path d="M245.536 180.168L226.096 190.32V185.16C226.096 184.792 226.192 184.456 226.384 184.152C226.576 183.848 226.88 183.584 227.296 183.36L234.112 179.664C234.512 179.44 234.944 179.264 235.408 179.136C235.888 178.992 236.384 178.856 236.896 178.728C236.384 178.6 235.888 178.464 235.408 178.32C234.944 178.16 234.512 177.968 234.112 177.744L227.296 174.072C226.88 173.848 226.576 173.584 226.384 173.28C226.192 172.96 226.096 172.616 226.096 172.248V167.088L245.536 177.264V180.168Z" fill="black"/>
<path d="M524.936 177.264L544.376 167.088V172.248C544.376 172.616 544.28 172.96 544.088 173.28C543.896 173.584 543.592 173.848 543.176 174.072L536.36 177.744C535.944 177.968 535.504 178.16 535.04 178.32C534.576 178.464 534.088 178.6 533.576 178.728C534.088 178.856 534.576 178.992 535.04 179.136C535.504 179.264 535.944 179.44 536.36 179.664L543.176 183.36C543.592 183.584 543.896 183.848 544.088 184.152C544.28 184.456 544.376 184.792 544.376 185.16V190.32L524.936 180.168V177.264Z" fill="black"/>
<path d="M120.149 195.612C79.2548 195.612 46.4662 175.691 1.99991 152.473C47.3363 130.492 79.2549 112.312 120.149 112.312C143.046 112.312 204.64 110.846 204.64 152.473C204.64 198.542 143.184 195.612 120.149 195.612Z" fill="white" stroke="#242424"/>
<path d="M136.04 186.132C104.396 186.132 79.0722 170.7 44.4518 152.794C79.5302 135.758 103.984 121.7 136.04 121.7C153.854 121.7 201.389 120.555 201.389 152.794C201.48 188.422 153.854 186.132 136.04 186.132Z" fill="white" stroke="#242424"/>
<path d="M223.966 76.8669L241.688 101.184C273.744 83.965 321.416 70.1809 365.104 65.1435C309.555 61.6174 269.531 21.5932 258.22 1.03152C186.094 0.16143 138.88 17.5175 124.271 26.1726C149.87 43.666 175.103 73.4781 184.491 86.1631L223.966 76.8669Z" fill="white" stroke="#242424"/>
<path d="M183.163 220.936C174.004 233.667 148.542 263.479 122.943 280.926C137.552 289.719 184.765 307.121 256.892 306.251C268.203 285.826 308.227 245.665 363.775 242.138C320.042 237.147 272.187 223.363 240.36 206.144L222.592 230.461L183.163 220.936Z" fill="white" stroke="#242424"/>
<path d="M560.828 211.823C605.752 192.589 638.816 169.417 638.816 153.939C638.816 139.422 605.707 116.204 560.737 96.6958C564.128 115.746 565.905 135.048 566.049 154.397C565.948 173.652 564.201 192.864 560.828 211.823Z" fill="#242424" stroke="#242424"/>
<path d="M185.59 190.254L185.59 117.578L206.564 127.378L206.564 180.454L185.59 190.254Z" fill="#242424" stroke="#242424"/>
</svg>
