<svg width="26" height="32" viewBox="0 0 26 32" fill="none" xmlns="http://www.w3.org/2000/svg">
<path d="M15.7263 27.7611C15.2301 27.7611 14.7991 28.097 14.6933 28.5769C14.612 28.9368 14.4737 29.2327 14.2866 29.4486C14.1809 29.5686 13.8718 29.9205 12.9771 29.9205C12.0824 29.9205 11.7733 29.5606 11.6676 29.4486C11.4805 29.2327 11.3422 28.9368 11.2609 28.5769C11.1551 28.097 10.7241 27.7611 10.2279 27.7611C9.54467 27.7611 9.04851 28.3849 9.19492 29.0327C9.6016 30.8163 10.903 32 12.9771 32C15.0512 32 16.3526 30.8243 16.7593 29.0327C16.9057 28.3849 16.4014 27.7611 15.7263 27.7611ZM25.6738 23.6981C24.4213 22.0745 21.9567 21.1227 21.9567 13.8525C21.9567 6.3904 18.6056 3.39115 15.4823 2.67133C15.1895 2.59935 14.978 2.50337 14.978 2.19945V1.96751C14.978 0.903774 14.0996 0 13.0259 0H12.9771C11.9034 0 11.025 0.903774 11.025 1.96751V2.19945C11.025 2.49538 10.8135 2.59935 10.5207 2.67133C7.38923 3.39915 4.04627 6.3904 4.04627 13.8525C4.04627 21.1227 1.58175 22.0665 0.329156 23.6981C-0.476083 24.7458 0.288487 26.2414 1.62242 26.2414H24.405C25.7145 26.2414 26.4709 24.7378 25.6738 23.6981ZM22.5017 24.162H3.53384C3.22476 24.162 3.06209 23.81 3.26543 23.5781C3.83479 22.9383 4.46109 22.0985 4.97351 20.9068C5.75435 19.0992 6.13664 16.7878 6.13664 13.8525C6.13664 10.8693 6.706 8.53387 7.83658 6.91027C8.84517 5.45464 10.1059 4.90277 10.9843 4.70282C11.6676 4.54286 12.1556 4.23894 12.4972 3.86303C12.7575 3.57511 13.2048 3.55911 13.4651 3.84704C13.8799 4.30292 14.4412 4.57486 14.9943 4.70282C15.8727 4.90277 17.1334 5.45464 18.142 6.91027C19.2726 8.53387 19.842 10.8693 19.842 13.8525C19.842 16.7878 20.2242 19.0992 21.0051 20.9068C21.5338 22.1225 22.1763 22.9783 22.7538 23.6181C22.9328 23.834 22.7864 24.162 22.5017 24.162Z" fill="#1A3777"/>
<circle cx="20.5" cy="8.5" r="4.5" fill="#D2405B"/>
</svg>
